<?xml version="1.0" encoding="utf-8"?>
<!-- Generator: Adobe Illustrator 25.2.1, SVG Export Plug-In . SVG Version: 6.00 Build 0)  -->
<svg version="1.1" id="Calque_1" xmlns="http://www.w3.org/2000/svg" xmlns:xlink="http://www.w3.org/1999/xlink" x="0px" y="0px"
	 viewBox="0 0 10 10" style="enable-background:new 0 0 10 10;" xml:space="preserve">
<style type="text/css">
	.st0{fill:#FFFFFF;}
	.st1{fill:#FDB8D5;}
</style>
<g>
	<circle class="st0" cx="5" cy="5" r="0.5"/>
	<path class="st0" d="M5,4C4.45,4,4,4.45,4,5s0.45,1,1,1s1-0.45,1-1S5.55,4,5,4L5,4z"/>
</g>
<g>
	<path class="st1" d="M5,0.25c2.62,0,4.75,2.13,4.75,4.75S7.62,9.75,5,9.75S0.25,7.62,0.25,5S2.38,0.25,5,0.25 M5,0
		C2.24,0,0,2.24,0,5s2.24,5,5,5s5-2.24,5-5S7.76,0,5,0L5,0z"/>
</g>
</svg>
